<svg data-name="Layer 1" xmlns="http://www.w3.org/2000/svg" viewBox="0 0 756.69 756.69">
    <path d="M378.35 756.7a377.23 377.23 0 1 1 147.28-29.74 376 376 0 0 1-147.28 29.74Zm0-715.69C192.35 41 41 192.35 41 378.35S192.35 715.7 378.35 715.7 715.7 564.35 715.7 378.35 564.35 41 378.35 41Z"/>
    <circle cx="378.35" cy="378.35" r="344.86" style="fill:#0ff"/>
    <path d="M751 267.74a343.34 343.34 0 0 1 72.26 211.16c0 190.46-154.4 344.86-344.86 344.86a343.34 343.34 0 0 1-211.15-72.21c63.09 81.34 161.75 133.7 272.65 133.7 190.46 0 344.86-154.4 344.86-344.86-.01-110.9-52.37-209.56-133.76-272.65Z" transform="translate(-161.65 -161.65)" style="opacity:.14"/>
    <path d="M231.46 548.86v-179.3h-67.24l224.13-201.72 112.06 99.18v-65.56h44.83v107l67.24 61.07h-67.24v179.3H435.98V414.35h-95.26v134.51Zm109.26-229.73h95.25q0-18.49-14.29-30.54a52.16 52.16 0 0 0-66.68 0q-14.28 12.05-14.28 30.54Z"/>
</svg>
