<svg xmlns="http://www.w3.org/2000/svg" viewBox="0 0 756.69 756.69">
    <g data-name="Layer 2">
        <g data-name="Layer 1">
            <path d="M378.35 756.69a378.44 378.44 0 0 1-147.28-727A378.44 378.44 0 0 1 525.62 727a376 376 0 0 1-147.27 29.69Zm0-715.69C192.33 41 41 192.33 41 378.35s151.33 337.34 337.35 337.34 337.34-151.33 337.34-337.34S564.36 41 378.35 41Z"/>
            <circle cx="378.35" cy="378.35" r="344.86" style="fill:#0ff"/>
            <path d="M589.4 106.09a343.34 343.34 0 0 1 72.2 211.15c0 190.46-154.4 344.86-344.86 344.86a343.34 343.34 0 0 1-211.15-72.2c63.09 81.34 161.75 133.7 272.65 133.7 190.46 0 344.86-154.4 344.86-344.86 0-110.9-52.36-209.57-133.7-272.65Z" style="opacity:.14"/>
            <path d="M569.48 375.23 274.02 217.72l295.46 157.51zM291.65 541.35l65.71-35.62-65.71 35.62zM569.53 390.74 357.36 505.73l212.17-114.99zM569.48 375.23 274 217.72v313.13a11.94 11.94 0 0 0 17.63 10.5l65.71-35.61 212.17-115a8.8 8.8 0 0 0-.03-15.51Z"/>
        </g>
    </g>
</svg>
